<?xml version="1.0" standalone="no"?>
<!DOCTYPE svg PUBLIC "-//W3C//DTD SVG 20010904//EN"
 "http://www.w3.org/TR/2001/REC-SVG-20010904/DTD/svg10.dtd">
<svg version="1.0" xmlns="http://www.w3.org/2000/svg"
 width="24.000000pt" height="24.000000pt" viewBox="0 0 24.000000 24.000000"
 preserveAspectRatio="xMidYMid meet">

<g transform="translate(0.000000,24.000000) scale(0.100000,-0.100000)"
fill="#000000" stroke="none">
<path d="M10 222 c0 -5 9 -17 21 -28 l20 -18 -21 -8 c-18 -7 -21 -15 -18 -50
2 -34 7 -44 23 -46 11 -2 30 -13 42 -24 27 -25 43 -16 43 25 l0 31 50 -49 c27
-27 53 -46 57 -42 7 8 -195 217 -209 217 -5 0 -8 -4 -8 -8z m78 -84 c7 -7 12
-28 12 -47 0 -32 -1 -33 -18 -18 -10 10 -26 17 -35 17 -12 0 -17 9 -17 30 0
25 4 30 23 30 13 0 28 -5 35 -12z"/>
<path d="M92 198 c6 -18 28 -21 28 -4 0 9 -7 16 -16 16 -9 0 -14 -5 -12 -12z"/>
<path d="M196 166 c8 -14 15 -38 14 -53 -3 -42 -1 -50 10 -33 15 22 12 63 -6
88 -21 30 -38 28 -18 -2z"/>
<path d="M150 153 c0 -14 19 -38 25 -32 8 8 -5 39 -16 39 -5 0 -9 -3 -9 -7z"/>
</g>
</svg>
