<?xml version="1.0" standalone="no"?>
<!DOCTYPE svg PUBLIC "-//W3C//DTD SVG 20010904//EN"
 "http://www.w3.org/TR/2001/REC-SVG-20010904/DTD/svg10.dtd">
<svg version="1.0" xmlns="http://www.w3.org/2000/svg"
 width="24.000000pt" height="24.000000pt" viewBox="0 0 24.000000 24.000000"
 preserveAspectRatio="xMidYMid meet">

<g transform="translate(0.000000,24.000000) scale(0.100000,-0.100000)"
fill="#000000" stroke="none">
<path d="M76 191 c-10 -11 -28 -21 -40 -23 -18 -3 -21 -10 -21 -48 0 -37 4
-45 20 -48 11 -2 30 -13 43 -25 33 -31 43 -12 40 78 -3 83 -13 98 -42 66z m24
-73 c0 -59 -1 -60 -18 -45 -10 10 -26 17 -35 17 -12 0 -17 9 -17 30 0 23 5 30
19 30 10 0 24 7 31 15 7 8 14 15 16 15 2 0 4 -28 4 -62z"/>
<path d="M194 168 c20 -29 20 -62 0 -93 -10 -15 -12 -25 -5 -25 6 0 18 11 27
25 17 27 14 76 -7 102 -19 22 -31 15 -15 -9z"/>
<path d="M155 120 c0 -22 3 -40 7 -40 11 0 20 39 13 60 -10 33 -20 23 -20 -20z"/>
</g>
</svg>
